PathFileType	4	(X/Y/Z)	 New Session 108.trc
DataRate	CameraRate	NumFrames	NumMarkers	Units	OrigDataRate	OrigDataStartFrame	OrigNumFrames
100	100	19	14	m	100	1	945
Frame#	Time	C7			T8			IJ			PX			AA			AC			AI			TS			SC			GH			LE			ME			US			RS			
		X1	Y1	Z1	X2	Y2	Z2	X3	Y3	Z3	X4	Y4	Z4	X5	Y5	Z5	X6	Y6	Z6	X7	Y7	Z7	X8	Y8	Z8	X9	Y9	Z9	X10	Y10	Z10	X11	Y11	Z11	X12	Y12	Z12	X13	Y13	Z13	X14	Y14	Z14	
1	0.0100	0.022463	0.103158	0.161945	0.012139	-0.112789	0.233425	0.000000	0.000000	0.000000	-0.005055	-0.141495	-0.068284	0.211742	-0.002465	0.157811	0.169862	0.039940	0.081739	0.095293	0.023745	0.205939	0.092463	-0.096161	0.239434	0.024994	0.007392	0.004804	0.228181	0.009870	0.119088	0.279006	-0.281416	0.060038	0.201167	-0.302244	0.012746	0.337679	-0.532735	-0.046060	0.406152	-0.502863	-0.057808	
2	0.0200	0.022355	0.103149	0.161961	0.012117	-0.112778	0.233380	-0.000234	-0.000027	0.000007	-0.005129	-0.141506	-0.068317	0.211681	-0.002404	0.157713	0.169706	0.040010	0.081573	0.095210	0.023768	0.205888	0.092343	-0.096199	0.239208	0.024777	0.007420	0.004752	0.228099	0.009932	0.119013	0.279004	-0.281374	0.060065	0.201209	-0.302229	0.012838	0.337690	-0.532737	-0.046000	0.406149	-0.502754	-0.057907	
3	0.0300	0.022254	0.103145	0.161965	0.012094	-0.112764	0.233338	-0.000457	-0.000060	-0.000005	-0.005208	-0.141523	-0.068350	0.211616	-0.002341	0.157618	0.169622	0.040139	0.081453	0.095129	0.023793	0.205829	0.092204	-0.096246	0.238878	0.024590	0.007423	0.004712	0.228015	0.010000	0.118916	0.279009	-0.281319	0.060082	0.201228	-0.302195	0.012906	0.337779	-0.532699	-0.045794	0.406178	-0.502657	-0.057898	
4	0.0400	0.022160	0.103145	0.161956	0.012069	-0.112750	0.233299	-0.000670	-0.000098	-0.000038	-0.005294	-0.141548	-0.068382	0.211554	-0.002266	0.157522	0.169552	0.040280	0.081358	0.095048	0.023822	0.205764	0.092071	-0.096283	0.238523	0.024437	0.007416	0.004672	0.227926	0.010078	0.118807	0.279012	-0.281249	0.060090	0.201222	-0.302144	0.012952	0.337903	-0.532644	-0.045495	0.406225	-0.502571	-0.057794	
5	0.0500	0.022064	0.103149	0.161943	0.012042	-0.112734	0.233263	-0.000869	-0.000135	-0.000089	-0.005386	-0.141580	-0.068412	0.211490	-0.002172	0.157426	0.169443	0.040400	0.081259	0.094966	0.023863	0.205694	0.091980	-0.096280	0.238281	0.024304	0.007412	0.004623	0.227832	0.010168	0.118698	0.279001	-0.281162	0.060093	0.201197	-0.302084	0.012979	0.338008	-0.532602	-0.045176	0.406281	-0.502491	-0.057602	
6	0.0600	0.021956	0.103163	0.161938	0.012012	-0.112718	0.233229	-0.001054	-0.000170	-0.000154	-0.005482	-0.141620	-0.068438	0.211413	-0.002061	0.157339	0.169317	0.040545	0.081143	0.094884	0.023917	0.205624	0.091953	-0.096221	0.238256	0.024169	0.007415	0.004568	0.227732	0.010267	0.118597	0.278967	-0.281067	0.060092	0.201156	-0.302023	0.012989	0.338075	-0.532581	-0.044875	0.406330	-0.502409	-0.057352	
7	0.0700	0.021832	0.103192	0.161954	0.011979	-0.112703	0.233196	-0.001224	-0.000197	-0.000228	-0.005581	-0.141665	-0.068461	0.211316	-0.001946	0.157267	0.169193	0.040681	0.081033	0.094806	0.023978	0.205561	0.091985	-0.096117	0.238460	0.024023	0.007418	0.004518	0.227627	0.010368	0.118507	0.278903	-0.280977	0.060090	0.201106	-0.301972	0.012985	0.338112	-0.532573	-0.044603	0.406347	-0.502313	-0.057103	
8	0.0800	0.021693	0.103237	0.161995	0.011943	-0.112691	0.233165	-0.001380	-0.000215	-0.000303	-0.005681	-0.141711	-0.068480	0.211204	-0.001841	0.157205	0.169071	0.040762	0.080949	0.094732	0.024032	0.205504	0.092045	-0.095997	0.238790	0.023876	0.007415	0.004481	0.227521	0.010461	0.118424	0.278809	-0.280908	0.060089	0.201047	-0.301939	0.012968	0.338120	-0.532573	-0.044376	0.406321	-0.502198	-0.056900	
9	0.0900	0.021551	0.103285	0.162049	0.011901	-0.112680	0.233135	-0.001525	-0.000222	-0.000373	-0.005779	-0.141755	-0.068497	0.211091	-0.001758	0.157145	0.168953	0.040799	0.080890	0.094656	0.024070	0.205454	0.092088	-0.095904	0.239064	0.023736	0.007406	0.004453	0.227411	0.010540	0.118341	0.278691	-0.280873	0.060086	0.200985	-0.301926	0.012938	0.338095	-0.532582	-0.044212	0.406256	-0.502065	-0.056748	
10	0.1000	0.021420	0.103316	0.162089	0.011854	-0.112673	0.233105	-0.001659	-0.000220	-0.000435	-0.005875	-0.141792	-0.068515	0.210991	-0.001700	0.157087	0.168836	0.040823	0.080837	0.094579	0.024093	0.205411	0.092085	-0.095860	0.239143	0.023605	0.007398	0.004426	0.227293	0.010605	0.118254	0.278552	-0.280871	0.060083	0.200920	-0.301929	0.012896	0.338039	-0.532593	-0.044108	0.406165	-0.501927	-0.056628	
11	0.1100	0.021306	0.103319	0.162096	0.011800	-0.112666	0.233074	-0.001785	-0.000214	-0.000486	-0.005968	-0.141819	-0.068536	0.210903	-0.001659	0.157031	0.168710	0.040855	0.080778	0.094505	0.024107	0.205372	0.092040	-0.095854	0.239042	0.023480	0.007391	0.004392	0.227159	0.010655	0.118157	0.278400	-0.280889	0.060078	0.200860	-0.301937	0.012840	0.337955	-0.532602	-0.044045	0.406067	-0.501798	-0.056516	
12	0.1200	0.021209	0.103302	0.162073	0.011740	-0.112660	0.233044	-0.001903	-0.000206	-0.000528	-0.006059	-0.141838	-0.068562	0.210819	-0.001622	0.156976	0.168580	0.040901	0.080717	0.094435	0.024120	0.205332	0.091973	-0.095859	0.238879	0.023355	0.007383	0.004349	0.227008	0.010692	0.118053	0.278248	-0.280907	0.060069	0.200811	-0.301936	0.012758	0.337841	-0.532612	-0.044000	0.405973	-0.501690	-0.056393	
13	0.1300	0.021123	0.103277	0.162031	0.011674	-0.112653	0.233014	-0.002016	-0.000201	-0.000564	-0.006149	-0.141849	-0.068592	0.210728	-0.001582	0.156918	0.168458	0.040952	0.080660	0.094365	0.024138	0.205286	0.091900	-0.095855	0.238754	0.023224	0.007377	0.004305	0.226860	0.010722	0.117954	0.278113	-0.280909	0.060049	0.200776	-0.301916	0.012635	0.337694	-0.532625	-0.043954	0.405888	-0.501615	-0.056244	
14	0.1400	0.021045	0.103257	0.161987	0.011606	-0.112642	0.232985	-0.002125	-0.000200	-0.000598	-0.006236	-0.141856	-0.068627	0.210627	-0.001540	0.156855	0.168351	0.041003	0.080604	0.094293	0.024160	0.205231	0.091829	-0.095837	0.238706	0.023085	0.007373	0.004270	0.226745	0.010758	0.117881	0.278003	-0.280887	0.060013	0.200755	-0.301871	0.012458	0.337518	-0.532641	-0.043893	0.405811	-0.501579	-0.056044	
15	0.1500	0.020970	0.103253	0.161959	0.011538	-0.112628	0.232957	-0.002229	-0.000204	-0.000630	-0.006321	-0.141865	-0.068665	0.210521	-0.001503	0.156782	0.168258	0.041055	0.080544	0.094220	0.024182	0.205168	0.091759	-0.095808	0.238725	0.022947	0.007372	0.004242	0.226668	0.010801	0.117832	0.277920	-0.280850	0.059968	0.200745	-0.301805	0.012232	0.337334	-0.532659	-0.043799	0.405745	-0.501589	-0.055775	
16	0.1600	0.020898	0.103271	0.161958	0.011472	-0.112610	0.232931	-0.002325	-0.000214	-0.000664	-0.006403	-0.141879	-0.068704	0.210423	-0.001478	0.156704	0.168182	0.041106	0.080479	0.094145	0.024196	0.205104	0.091690	-0.095776	0.238777	0.022814	0.007373	0.004219	0.226611	0.010842	0.117789	0.277852	-0.280807	0.059924	0.200740	-0.301724	0.011987	0.337173	-0.532685	-0.043654	0.405692	-0.501640	-0.055437	
17	0.1700	0.020835	0.103295	0.161970	0.011411	-0.112588	0.232905	-0.002411	-0.000231	-0.000698	-0.006486	-0.141899	-0.068742	0.210338	-0.001463	0.156630	0.168124	0.041156	0.080413	0.094067	0.024202	0.205040	0.091617	-0.095746	0.238807	0.022681	0.007376	0.004199	0.226556	0.010870	0.117735	0.277787	-0.280770	0.059893	0.200737	-0.301641	0.011763	0.337050	-0.532727	-0.043453	0.405656	-0.501720	-0.055063	
18	0.1800	0.020779	0.103312	0.161972	0.011357	-0.112564	0.232879	-0.002482	-0.000253	-0.000734	-0.006570	-0.141925	-0.068780	0.210264	-0.001451	0.156563	0.168070	0.041202	0.080341	0.093987	0.024204	0.204976	0.091534	-0.095724	0.238775	0.022558	0.007373	0.004172	0.226495	0.010887	0.117663	0.277720	-0.280745	0.059880	0.200734	-0.301568	0.011599	0.336964	-0.532787	-0.043213	0.405634	-0.501812	-0.054707	
19	0.1900	0.020723	0.103318	0.161955	0.011311	-0.112539	0.232850	-0.002539	-0.000278	-0.000770	-0.006657	-0.141954	-0.068819	0.210197	-0.001435	0.156492	0.168010	0.041238	0.080262	0.093913	0.024208	0.204908	0.091453	-0.095710	0.238702	0.022461	0.007355	0.004126	0.226425	0.010906	0.117571	0.277657	-0.280729	0.059884	0.200734	-0.301515	0.011518	0.336897	-0.532867	-0.042969	0.405617	-0.501895	-0.054420	
